/* XPM */
static char *e5495f3ff155496abb61cc3051672bf9kbB1zGGqZoEJTJwM[] = {
/* columns rows colors chars-per-pixel */
"64 64 256 2 ",
"   c black",
".  c #010101",
"X  c #020202",
"o  c gray1",
"O  c #040404",
"+  c gray2",
"@  c #060606",
"#  c #070707",
"$  c gray3",
"%  c #090909",
"&  c gray4",
"*  c #0B0B0B",
"=  c #0C0C0C",
"-  c gray5",
";  c #0E0E0E",
":  c gray6",
">  c #101010",
",  c #111111",
"<  c gray7",
"1  c #131313",
"2  c gray8",
"3  c #151515",
"4  c #161616",
"5  c gray9",
"6  c #181818",
"7  c #191919",
"8  c gray10",
"9  c #1B1B1B",
"0  c gray11",
"q  c #1D1D1D",
"w  c #1E1E1E",
"e  c gray12",
"r  c #202020",
"t  c gray13",
"y  c #222222",
"u  c #232323",
"i  c gray14",
"p  c #252525",
"a  c gray15",
"s  c #272727",
"d  c #282828",
"f  c gray16",
"g  c #2A2A2A",
"h  c gray17",
"j  c #2C2C2C",
"k  c #2D2D2D",
"l  c gray18",
"z  c #2F2F2F",
"x  c gray19",
"c  c #313131",
"v  c #323232",
"b  c gray20",
"n  c #343434",
"m  c #353535",
"M  c gray21",
"N  c #373737",
"B  c gray22",
"V  c #393939",
"C  c #3A3A3A",
"Z  c gray23",
"A  c #3C3C3C",
"S  c gray24",
"D  c #3E3E3E",
"F  c #3F3F3F",
"G  c gray25",
"H  c #414141",
"J  c gray26",
"K  c #434343",
"L  c #444444",
"P  c gray27",
"I  c #464646",
"U  c gray28",
"Y  c #484848",
"T  c #494949",
"R  c gray29",
"E  c #4B4B4B",
"W  c #4C4C4C",
"Q  c gray30",
"!  c #4E4E4E",
"~  c gray31",
"^  c #505050",
"/  c #515151",
"(  c gray32",
")  c #535353",
"_  c gray33",
"`  c #555555",
"'  c #565656",
"]  c gray34",
"[  c #585858",
"{  c gray35",
"}  c #5A5A5A",
"|  c #5B5B5B",
" . c gray36",
".. c #5D5D5D",
"X. c gray37",
"o. c #5F5F5F",
"O. c #606060",
"+. c gray38",
"@. c #626262",
"#. c gray39",
"$. c #646464",
"%. c #656565",
"&. c gray40",
"*. c #676767",
"=. c #686868",
"-. c DimGray",
";. c #6A6A6A",
":. c gray42",
">. c #6C6C6C",
",. c #6D6D6D",
"<. c gray43",
"1. c #6F6F6F",
"2. c gray44",
"3. c #717171",
"4. c #727272",
"5. c gray45",
"6. c #747474",
"7. c gray46",
"8. c #767676",
"9. c #777777",
"0. c gray47",
"q. c #797979",
"w. c gray48",
"e. c #7B7B7B",
"r. c #7C7C7C",
"t. c gray49",
"y. c #7E7E7E",
"u. c gray50",
"i. c #808080",
"p. c #818181",
"a. c gray51",
"s. c #838383",
"d. c #848484",
"f. c gray52",
"g. c #868686",
"h. c gray53",
"j. c #888888",
"k. c #898989",
"l. c gray54",
"z. c #8B8B8B",
"x. c gray55",
"c. c #8D8D8D",
"v. c #8E8E8E",
"b. c gray56",
"n. c #909090",
"m. c gray57",
"M. c #929292",
"N. c #939393",
"B. c gray58",
"V. c #959595",
"C. c gray59",
"Z. c #979797",
"A. c #989898",
"S. c gray60",
"D. c #9A9A9A",
"F. c #9B9B9B",
"G. c gray61",
"H. c #9D9D9D",
"J. c gray62",
"K. c #9F9F9F",
"L. c #A0A0A0",
"P. c gray63",
"I. c #A2A2A2",
"U. c gray64",
"Y. c #A4A4A4",
"T. c #A5A5A5",
"R. c gray65",
"E. c #A7A7A7",
"W. c gray66",
"Q. c #A9A9A9",
"!. c #AAAAAA",
"~. c gray67",
"^. c #ACACAC",
"/. c gray68",
"(. c #AEAEAE",
"). c #AFAFAF",
"_. c gray69",
"`. c #B1B1B1",
"'. c #B2B2B2",
"]. c gray70",
"[. c #B4B4B4",
"{. c gray71",
"}. c #B6B6B6",
"|. c #B7B7B7",
" X c gray72",
".X c #B9B9B9",
"XX c gray73",
"oX c #BBBBBB",
"OX c #BCBCBC",
"+X c gray74",
"@X c gray",
"#X c gray75",
"$X c #C0C0C0",
"%X c #C1C1C1",
"&X c gray76",
"*X c #C3C3C3",
"=X c gray77",
"-X c #C5C5C5",
";X c #C6C6C6",
":X c gray78",
">X c #C8C8C8",
",X c gray79",
"<X c #CACACA",
"1X c #CBCBCB",
"2X c gray80",
"3X c #CDCDCD",
"4X c #CECECE",
"5X c gray81",
"6X c #D0D0D0",
"7X c gray82",
"8X c #D2D2D2",
"9X c LightGray",
"0X c gray83",
"qX c #D5D5D5",
"wX c gray84",
"eX c #D7D7D7",
"rX c #D8D8D8",
"tX c gray85",
"yX c #DADADA",
"uX c gray86",
"iX c gainsboro",
"pX c #DDDDDD",
"aX c gray87",
"sX c #DFDFDF",
"dX c gray88",
"fX c #E1E1E1",
"gX c #E2E2E2",
"hX c gray89",
"jX c #E4E4E4",
"kX c gray90",
"lX c #E6E6E6",
"zX c #E7E7E7",
"xX c gray91",
"cX c #E9E9E9",
"vX c #EAEAEA",
"bX c gray92",
"nX c #ECECEC",
"mX c gray93",
"MX c #EEEEEE",
"NX c #EFEFEF",
"BX c gray94",
"VX c #F1F1F1",
"CX c gray95",
"ZX c #F3F3F3",
"AX c #F4F4F4",
"SX c gray96",
"DX c #F6F6F6",
"FX c gray97",
"GX c #F8F8F8",
"HX c #F9F9F9",
"JX c gray98",
"KX c #FBFBFB",
"LX c gray99",
"PX c #FDFDFD",
"IX c #FEFEFE",
"UX c white",
/* pixels */
"F C S N h x F G S A S Z A S A K T H A A A S S C S J D Z D S A L G Z A l z D Z D A G L U I L L L L K K J G F F G J S A H K G G L ",
"F A F V f n K J Z C S D G G D I I D C Z Z A F F F H S A F D S H D H K f d J H H H K P U U I P L G G H J H F F F F S A S F G G F ",
"A S H S s N K S V B S G G S C K L A C Z C V D J L K K K L L H D G D L j g H S L T U I I I P K G H G G H F S S D J L K F G L K D ",
"H J J D i N J Z A Z H K H Z M S G Z A G S C F P T I P L K L L G I D K j h J S P U L G F H J F A G F S A C C A D K P K F F J H A ",
"Y U J Z i C I K H H P I L A m Z A C F L H D H P E Y I L J I T U Y J J s h Y L K U K F G K I P K J G F F G H L U U P K J H H G D ",
"C C B M s m S C M M C V B n k c b v N Z N b n n M V C Z S D S C V b n f l S N M G A V V Z S A C V V C A A A S F G A V C Z V V C ",
"9 q e r 7 0 0 8 7 8 q 9 0 0 4 6 q 0 w w 9 8 7 5 4 9 8 7 r t 0 7 q 5 8 r t q 7 0 t e q 9 9 9 9 8 0 0 0 q q 0 0 q r 0 8 9 q w e t ",
"v c x z k f f g k l x k x v k l x z x z l c v z V B j a z n b M v n b n c l x c x x z z z z x x z l l l z z c b z k j j z b m M ",
"F J J A m N C V V V A A D D B Z B S F H J H G K Q Y D t V U D S Z G J Z Z F C V F K L D D D B N Z H S A D P E H N S g p F J K G ",
"F D D A V Z S C Z V A D J H C Z D D H P L H J I T Y J u M H A D V D F V B A Z D J H F A F G C M S F C A H U E G D H h p D G G S ",
"F D F F A S F D F Z Z D L J Z S K D J Y P J P Y E I G u N I G D S G L F D G F P U P J K I P G Z F K K L J K Y P G K h i F J J D ",
"F H P P S Z D J L D D G P L S H L S J U K K Y U E L S t N T P J H L R T T U K U Q E E ~ ! T I J I R ~ Q P H P Y G K j p F J L G ",
"F G L L A C S G H D H K Y I G K J D J P J I E I U K G y b I Y Y J L E Q ^ ! I T ) Q E _ ) E R L Q Q ( ( E I I U H L l s F H H F ",
"G D D D Z A S A V C G L T Y G G K J L P L R Q U W L F u m E W Y L I Q ^ ` ' ^ ( } W L ) [ ( / I W ~ } [ ! T U W J P l s G J K F ",
"H F D Z C D F A B C G J T R H F I I I U T W W R ^ P F i Z ) ( Y P R / ` | X.} ..[ Y H [ O.} } W ! ` %.+.( E T ^ T T z d K U I H ",
"K L K D V S H F G G J J T ! P H R Y I T Q W R W R K J d Z ( _ W J R _ '  .O. .o.^ L K X.%...X./ { ..;.%.[ / R W _ ^ b g I T U G ",
"H H J D C F L F J L D C U R G J Y R E T E ! ! E Y L H p H [ / W U R E Q '  .....) P T O.:.o.' [ O.#.:.<.#.' W P E / c k H U T F ",
"K J H S C A F S H K D C P R H K I Y Y U R ! ~ Q R I K p J ' / R Y T I I W _ } O.^ R E ] #.*.=.;.*.;.3.3.%.{ / Q T ^ v z K U Y H ",
"P I J A Z A A D D K G Z P E P I T R T U Y W Q W Q I L i G ^ ~ U L I I U T E ! _ W E ! ' o.%.*.=.-.,.5.2.@.` ! R ! ) b z L P L K ",
"P R L Z A D S F M S D V H Y K L U I P K L Y T T Q P K i F ! ) W R Q ~ / / W T Q ~ E / O.*.$.$.-.%.=.:.*.} ( ^ ^ [ ' b k K P J P ",
"L W I Z Z G F S B D J D K Y K K L L K K P T E W R K H d F W ' ( ) ( ( _ ' _ / _ ) T R ' { ^ ! ) { } | ] / ( { X.} ) b z I T P Y ",
"U ! R G F L P H J P R U T E P L P L L L I Y T R T K G x A P E R R R T Q ) _ ( ) ' ^ ! ~ ! I G D I Y W W E ! ` ] ( ! V B E ! R E ",
"k l l g d j l j h g l k j j s d f d d d f d d s j g f u p s s s a d d g x c z l g g h j j f u r i a g j h k k h l z d s x c z x ",
"t q r u r y s a s i s a a a y i i i i a s a p i t u p f a a y i i a u e y i u y a u u a a y t u i y y r e u p y t s s i y t y p ",
"M n B V s c D G C B A F S F G Z V S S A H H A B Z F Z F L F S S S B v s f K G C K F J L L P K J Y T Z F H K A Z S K F B C Z C Z ",
"N M Z C p k Z S B B Z S S D S C S D C N Z S C N V A N C F Z C Z V M v i s P L G Y I L P K G H L G J C A F S N n N A Z M M B B N ",
"B V D C i j C S B C Z A D S Z Z J H Z B A D A V A D C S F Z C V M M m p s I P P I R J L J B A J G H V N S B B B b N Z C B Z A B ",
"C C D C i z D G A F S S H D C S K K D S J K G S F J G K K A V M m M B d d K D K P W J Y U N Z K J J Z N G C A C b M S F Z D H S ",
"S A D B i c H J G J F F H D C D J J F F L L F S D G F K H C V n B M B d d D B K L T F I U N C H F G S Z L Z V b c n Z S C S H S ",
"G F G B u c H H J H F F F S A F K K F F J H D A A A Z F A V A B S C C s d H C T U U F L L B Z H K K A Z H Z N v c n B B N C D D ",
"H K L C i x G F K F F G S A F H K L H H J G S S Z C Z F A Z F Z G F D a g T F W E Y U T I F G I U Y A A D S Z Z N Z C B B Z D K ",
"H P Y D p c G G K S D G A A J K H J J K L H A A Z C A J F A G Z S G H a h ! H R L H U T L G D K K Y D J H J D G S H D V Z S G Y ",
"I D J F u Z T H I K P P J L T U Y K G J K H F F D D G P P H D D S A H k z I L I L T T E J I K H K J L U U J F D F H J H H J L L ",
"U K K G i C Y E R Y U U P I Y Y T L J L P J G F F J P I P P L L J A H j z Y K I I T T E K I P P J H H K K H D S G F S A F K I P ",
"L K G D u V J T T R Y I U U I U E U L L K G S A D K P K J P I P H V G g k T G L I I U T J K I T J H F S S D A V F F D D F K P P ",
"L H G G u A J H P R T U T U L Y T I L K J G D D G J K H H K L L D C L g l W J P Y I Y R L K I E P L G A A D S C F K I I L L L P ",
"P F K H t S R J L E Q E E U L T P K J J J J J K L H G K L K J H D D I h j T K P Y P T R U J I R L K G A A F F S J P U U I I L H ",
"U H U G i D / Q W / _ ) ^ W R Q R R T U I I I U R P K U T U P L H K U z k L J K T P R R T K U Y K J G F G J K K R U P I R W T L ",
"Z N Z m f N J J K K I I J G H G H H H G S Z C C A C B C S D A Z V V C l k N m n Z N A C Z N Z C N M N B B B V Z G S C C D H G S ",
"e 9 q 9 t y w e t q e e 0 q e 0 0 e r r e q 0 9 8 9 9 7 9 r r w w q e e e w 8 6 9 5 9 6 9 6 q 8 9 9 q e w 9 0 w w r r w q w r t ",
"b M b v M M n V V c n M G D D F Z D C Z B b B M v M m w x V M n x b v x v b v b b A G b n c b z c m n m n b m v C V s j Z N B S ",
"S F A Z G H H I P D K P Q W W E P I P Q Q K G A A D Z u N H D S C A V B Z S S D F I U Z A S J G G L J K J H L H I G a h P I G D ",
"P P G S J K K Y I L T E ( ^ ^ R P K I '  .^ U H F G C r m F S F D S C B S G H J D I Y F F F G D J I P U I L P J P P f d G H Z A ",
"K L S C D G F J K P Q ( ] _ _ Y L H I [ @. .^ U H K A t n S A H Z C m m C S S D N G K D D A C N H U Y W E I P H H R x f A A C J ",
"H K S Z H K H K H P ~ [ ..{ } T K J Y ) X.X./ L G P D t n C V H S A B B A S A S V F F S D G F F D J L Y U J H S J Y j a D H F P ",
"L I H D L I K J L U /  .O.} | I D H T Q ` { Q G S K Z e b B M G H F A Z D D A S B D S F D G S D I Y U R T P U I K L d p S J H L ",
"U T K F P U K H E W _ #.*.+.%.^ K U ! W ~ ` E K D L C e M A B J H G A A S Z C A V D S G D G C A P I K I P J P I U P j g D J L U ",
"U T K G U R U I T Y / $.>.-.3. .E W / T Y W L H S H M 0 M S B J J H S A A C C S H L D H F P K T U Y I T T P Y Y I G s f D L I U ",
"R Y H S L W T L Q ~ ' &.<.1.3.,.| [ _ ' ^ ~ R Q T J D q B H F U P K D C Z D F D G I P K G F U R J L E T T R K T U E z h J U P I ",
"Y R L G L R T U T Q [ :.7.8.0.5. .X.O.-.&.$. .| / ( Y y m P D G P G F K U L S V I U J G F G Y Y L I R R R Y L T R Y z k J T R I ",
"T T L H P R T Y P E ] ;.5.5.4.>.=.-.-.3.<.;.o. .{ } U y c U G L H A S J H C B A I I G G J P E R I T Y W W I U E Y U c c K R E U ",
"T I D S P R U K K R ' ;.7.9.q.5.3.:.+.#.o.o.` / ) ~ S e b J F I K F S D Z N C H D G D G J J U P J I J Y T G L U J U x z K I L L ",
"Y P F F P Y I L F L Q o.;.1.6.1.2.*. .X. ...) Q T I Z r A K H J H A B N C A C M S J J P K F K K K U K Y T H I T U ! z h Y T G L ",
"G H D S F F G K U R ~ | $.-.1.;.$.+.| O.X.| Q L F J V 9 C J L G J J D C Z G D V D K L U L G P U L Y U R R U T W ~ / l h E W G H ",
"A D S A A Z A J P I T ) } X.#.o._ ' _ { _ / P D A K Z i A J K L S H G C N C A Z F J J U Y I T R L Y W R E Q E ~ ^ ^ N N W W K F ",
"e w 9 0 e w q t u u u f h h k a y a p f a d i i q a t 8 d i 0 y t u u t t y e 9 e r e a f a a u r i h a s k d j h j y p j d a q ",
"d s a i 0 y i t p i u i f u a u s d s a s d d p a a k x j h j f d p x a u z f i i d s i p a a s p s s a d a i a d f j l h g g s ",
"V A C v a n C v Z S D A F V S V A D D S A A Z C F F J L J K P P Y J P v j F G F D J K H J J H K F G J J H G F D H G J K J J K H ",
"S S Z b t v A M A F H D F B Z N S D G G F A Z A S G G H K K L U U P I k p Z F S C F H G H G G J F S H K F F F C S Z S F F G G S ",
"L S Z C y x S S D F F F G M B m N N V Z Z C V Z B F F F J H G P P P U l s F J A A H J J J H H P P G L U J L P F D S G L P P J S ",
"L F S D p n D D L G G K I Z S A A C C A D F F F A K L K L J J T I L L g p G K S A G H H H G G L U H K I J P U H F D G L L L J A ",
"C S C V y M A M G Z C D K C S S F S Z Z D H G D D H J F D S H I U K L z h J K D G J J K L K K U T L L P L I U K K G G J K L K F ",
"Z H A S g D D B H F D S H A H F S D S Z A G F Z H G J H D F K L S C G x h S A V F G G K I L K I U L H J K L J G J F G H H J K G ",
"Z D N F l S V C D H G V C B F C V D D Z Z F F C S C S F S D G A D V G c j S D G A S D J I P K L P L G G L K D S G F H K K K K F "
};
